<?xml version="1.0" encoding="UTF-8"?>
<svg width="19px" height="24px" viewBox="0 0 19 24" version="1.1" xmlns="http://www.w3.org/2000/svg" xmlns:xlink="http://www.w3.org/1999/xlink">
    <title>hockey.9@1x</title>
    <g id="1.-Design" stroke="none" stroke-width="1" fill="none" fill-rule="evenodd">
        <g id="Reportáž" transform="translate(-777.000000, -985.000000)" fill="#ED1F24" fill-rule="nonzero">
            <g id="góly" transform="translate(528.000000, 985.000000)">
                <g id="hockey.9" transform="translate(249.000000, 0.000000)">
                    <path d="M18.9190476,0.592584757 C18.8380952,0.512422376 18.7571429,0.432259995 18.6761905,0.432259995 L17.0571429,0.0314480905 C16.8952381,-0.0487142905 16.652381,0.0314480905 16.5714286,0.191772852 L9.60952381,18.94977 C9.36666667,19.591069 8.8,19.991881 8.07142857,19.991881 L3.45714286,19.991881 C3.05238095,19.991881 2.56666667,20.2323681 2.32380952,20.63318 C2,21.0339919 1.91904762,21.5951286 2.08095238,22.0761029 L2.4047619,23.1182138 C2.56666667,23.5991881 3.13333333,24 3.78095238,24 L9.04285714,24 C10.0952381,24 10.9857143,23.358701 11.3095238,22.3967524 L19,0.913234281 C19,0.752909519 19,0.672747138 18.9190476,0.592584757 Z" id="Path"></path>
                    <path d="M4,16 C5.92,16 8,15.55 8,14.5 C8,13.45 5.92,13 4,13 C2.08,13 6.06181771e-13,13.45 6.06181771e-13,14.5 C6.06181771e-13,15.55 2.08,16 4,16 Z" id="Path"></path>
                    <path d="M8,16.1818182 L8,16 C7.12,16.8181818 5.52,17.0909091 4,17.0909091 C2.48,17.0909091 0.88,16.8181818 6.06181771e-13,16 L6.06181771e-13,16.1818182 C6.06181771e-13,17.4545455 2.08,18 4,18 C5.92,18 8,17.4545455 8,16.1818182 Z" id="Path"></path>
                </g>
            </g>
        </g>
    </g>
</svg>