<svg width="19" height="24" viewBox="0 0 19 24" xmlns="http://www.w3.org/2000/svg"><g fill="#ED1F24" fill-rule="nonzero"><path d="M18.919.593c-.08-.08-.162-.16-.243-.16L17.057.03c-.162-.08-.405 0-.486.16L9.61 18.95c-.243.641-.81 1.042-1.539 1.042H3.457c-.405 0-.89.24-1.133.641-.324.401-.405.962-.243 1.443l.324 1.042c.162.481.728.882 1.376.882h5.262c1.052 0 1.943-.641 2.267-1.603L19 .913c0-.16 0-.24-.081-.32z"/><path d="M4 16c1.92 0 4-.45 4-1.5S5.92 13 4 13s-4 .45-4 1.5S2.08 16 4 16zM8 16.182V16c-.88.818-2.48 1.09-4 1.09S.88 16.819 0 16v.182C0 17.455 2.08 18 4 18s4-.545 4-1.818z"/></g></svg>